<svg width="45" height="42" viewBox="0 0 45 42" fill="none" xmlns="http://www.w3.org/2000/svg">
<path d="M17.1452 32.6304L18.7677 31.1161C18.5119 30.6674 18.3027 30.1957 18.1419 29.7093H15.8497C15.5579 29.7093 15.3224 29.4886 15.3224 29.2171V25.4633C15.3224 25.1918 15.5579 24.9711 15.8497 24.9711H18.1428C18.3027 24.4847 18.5119 24.0138 18.7677 23.5651L17.1452 22.0508C16.9396 21.8589 16.9396 21.5471 17.1452 21.3552L19.9894 18.7007C20.0887 18.608 20.2231 18.5563 20.3629 18.5563C20.5026 18.5563 20.6371 18.608 20.7355 18.7007L22.3571 20.2141C22.8396 19.9754 23.3441 19.7802 23.8645 19.6309V17.4915C23.8645 17.22 24.1 16.9993 24.3918 16.9993H25.5634V11.2785H19.6879C19.397 11.2785 19.1605 11.0578 19.1605 10.7863V5.30249H2.3418V33.5885H17.4273L17.1461 33.326C16.9395 33.1341 16.9396 32.8223 17.1452 32.6304ZM15.8488 13.3416H13.8546C13.5628 13.3416 13.3272 13.1209 13.3272 12.8494C13.3272 12.577 13.5628 12.3572 13.8546 12.3572H15.8708C16.1679 12.3572 16.4069 12.5869 16.3973 12.865C16.3894 13.134 16.1371 13.3416 15.8488 13.3416ZM5.71152 9.20308H15.8717C16.1635 9.20308 16.399 9.42374 16.399 9.69526C16.399 9.96761 16.1635 10.1875 15.8717 10.1875H5.71152C5.41973 10.1875 5.18418 9.96761 5.18418 9.69526C5.18418 9.42374 5.41973 9.20308 5.71152 9.20308ZM5.73262 12.3572H10.6914C10.9823 12.3572 11.2187 12.5778 11.2187 12.8494C11.2187 13.1217 10.9832 13.3416 10.6914 13.3416H5.71152C5.41445 13.3416 5.17627 13.1143 5.18418 12.8354C5.19121 12.5655 5.44346 12.3572 5.73262 12.3572ZM12.4738 29.1957C12.4738 29.4673 12.2374 29.6879 11.9465 29.6879H5.71152C5.41973 29.6879 5.18418 29.4673 5.18418 29.1957V23.3756C5.18418 23.1041 5.41973 22.8834 5.71152 22.8834H8.87119C9.16211 22.8834 9.39853 23.1041 9.39853 23.3756C9.39853 23.648 9.16211 23.8678 8.87119 23.8678H6.23887V28.7035H11.4191V28.2187C11.4191 27.9472 11.6556 27.7266 11.9465 27.7266C12.2374 27.7266 12.4738 27.9472 12.4738 28.2187V29.1957ZM5.18418 19.1584C5.18418 18.886 5.41973 18.6662 5.71152 18.6662H12.7656C13.0565 18.6662 13.293 18.886 13.293 19.1584C13.293 19.4299 13.0565 19.6506 12.7656 19.6506H5.71152C5.41973 19.6506 5.18418 19.4299 5.18418 19.1584ZM13.8396 23.3412L9.221 27.6527C9.12168 27.7446 8.98809 27.7971 8.84746 27.7971C8.70771 27.7971 8.57412 27.7446 8.4748 27.6527L6.78467 26.0753C6.579 25.8833 6.579 25.5716 6.78467 25.3788C6.99121 25.1869 7.32519 25.1869 7.53086 25.3788L8.84746 26.6085L13.0943 22.6455C13.3 22.4528 13.634 22.4528 13.8396 22.6455C14.0453 22.8375 14.0453 23.1492 13.8396 23.3412ZM14.7467 16.4965H5.71152C5.41973 16.4965 5.18418 16.2758 5.18418 16.0043C5.18418 15.7319 5.41973 15.5121 5.71152 15.5121H14.7467C15.0376 15.5121 15.274 15.7319 15.274 16.0043C15.274 16.2758 15.0367 16.4965 14.7467 16.4965Z" fill="#0252CF"/>
<path d="M20.2148 5.9989V10.2941H24.8159L20.2148 5.9989Z" fill="#0252CF"/>
<path d="M33.7521 25.5847C33.5754 24.935 33.2977 24.3124 32.9285 23.7324C32.8055 23.5388 32.838 23.2919 33.0094 23.1327L34.5413 21.7029L32.4434 19.7449L30.9123 21.1738C30.7418 21.333 30.4781 21.3642 30.2707 21.2493C29.6484 20.9048 28.9805 20.6464 28.2835 20.4799C28.0506 20.4241 27.8871 20.228 27.8871 20.0033V17.9836H24.9199V20.0033C24.9199 20.228 24.7564 20.4241 24.5227 20.4799C23.8266 20.6464 23.1577 20.9048 22.5363 21.2493C22.3307 21.3633 22.0652 21.3338 21.8938 21.1738L20.3637 19.7449L18.2648 21.7029L19.7959 23.1327C19.9664 23.2919 19.9998 23.5388 19.8759 23.7324C19.5085 24.3099 19.2308 24.9333 19.0523 25.5855C18.9926 25.8029 18.7825 25.9554 18.5417 25.9554H16.377V28.7248H18.5417C18.7825 28.7248 18.9926 28.8774 19.0523 29.0956C19.2308 29.7477 19.5085 30.3712 19.8759 30.9487C19.9998 31.1423 19.9664 31.3892 19.7959 31.5483L18.264 32.9781L20.3628 34.9362L21.8938 33.5072C22.0644 33.3481 22.3289 33.3169 22.5363 33.4318C23.1586 33.7763 23.8283 34.0347 24.5218 34.2004C24.7556 34.2554 24.919 34.4522 24.919 34.677V36.6974H27.8862V34.677C27.8862 34.4522 28.0497 34.2554 28.2835 34.2004C28.9787 34.0347 29.6467 33.7763 30.2698 33.4318C30.4764 33.3169 30.7409 33.3481 30.9114 33.5072L32.4425 34.9362L34.5413 32.9781L33.0103 31.5483C32.8389 31.3892 32.8063 31.1423 32.9294 30.9487C33.2985 30.3687 33.5763 29.7453 33.7529 29.0956C33.8127 28.8774 34.0228 28.7248 34.2645 28.7248H36.4292V25.9554H34.2645C34.0219 25.9554 33.8127 25.8029 33.7521 25.5847ZM26.4035 32.5549C26.1117 32.5549 25.8762 32.335 25.8762 32.0627C25.8762 31.7911 26.1117 31.5705 26.4035 31.5705C28.9022 31.5705 30.936 29.6731 30.936 27.3401C30.936 25.008 28.9022 23.1098 26.4035 23.1098C24.1975 23.1098 22.3553 24.5888 21.9536 26.5395L22.1953 26.1318C22.3368 25.8939 22.6576 25.8078 22.9125 25.9399C23.1665 26.0711 23.2588 26.3705 23.1182 26.6084L21.9729 28.5378C21.8807 28.6928 21.7066 28.7896 21.5168 28.7913H21.5115C21.3234 28.7913 21.1503 28.6986 21.0554 28.5468L19.8662 26.6412C19.7194 26.4058 19.8047 26.1047 20.0569 25.9677C20.3083 25.8316 20.6309 25.9111 20.7776 26.1458L20.9156 26.3664C21.4061 23.9547 23.6789 22.1254 26.4035 22.1254C29.4841 22.1254 31.9907 24.4649 31.9907 27.3401C31.9907 30.2161 29.4841 32.5549 26.4035 32.5549Z" fill="#0252CF"/>
<path d="M37.506 12.6672C36.9883 12.5647 36.5436 12.2808 36.2518 11.8674L35.2094 10.3933L34.8174 12.1201C34.7066 12.6032 34.4025 13.0191 33.9604 13.2915L32.3828 14.2619L34.2303 14.6302C34.7488 14.7336 35.1944 15.0174 35.4854 15.4309L36.5277 16.9025L36.9197 15.1782C37.0305 14.695 37.3346 14.2783 37.7775 14.006L39.3543 13.0355L37.506 12.6672Z" fill="#0252CF"/>
<path d="M42.5895 16.4612C42.1939 16.3825 41.8538 16.1659 41.6314 15.8501L40.8352 14.7246L40.5372 16.0429C40.4528 16.4112 40.2208 16.7286 39.8824 16.9362L38.6836 17.6753L40.0898 17.9583C40.4854 18.037 40.8246 18.2536 41.047 18.5678L41.8397 19.6941L42.143 18.375C42.2273 18.0059 42.4594 17.6884 42.7969 17.4809L44.0027 16.7368L42.5895 16.4612Z" fill="#0252CF"/>
<path d="M40.5698 22.059L39.9159 21.2231L39.6338 22.2239C39.5608 22.4831 39.3991 22.703 39.1671 22.8613L38.2715 23.4716L39.3437 23.7349C39.6215 23.803 39.857 23.954 40.0267 24.1705L40.6806 25.0064L40.9627 24.0056C41.0356 23.7464 41.1974 23.5266 41.4285 23.3683L42.3232 22.7579L41.2519 22.4946C40.975 22.4265 40.7395 22.2756 40.5698 22.059Z" fill="#0252CF"/>
</svg>
