<svg width="41" height="37" viewBox="0 0 41 37" fill="none" xmlns="http://www.w3.org/2000/svg">
<g clip-path="url(#clip0_252_5550)">
<path d="M8.96875 28.9062H32.0312V31.2188H8.96875V28.9062Z" fill="#0252CF"/>
<path d="M39.7188 28.9062H34.5938V32.375C34.5938 32.6817 34.4588 32.9758 34.2185 33.1926C33.9782 33.4094 33.6523 33.5312 33.3125 33.5312H7.6875C7.34769 33.5312 7.0218 33.4094 6.78152 33.1926C6.54124 32.9758 6.40625 32.6817 6.40625 32.375V28.9062H1.28125C0.941441 28.9062 0.61555 29.0281 0.375269 29.2449C0.134988 29.4617 0 29.7558 0 30.0625L0 32.375C0 33.6016 0.539954 34.778 1.50108 35.6454C2.4622 36.5127 3.76577 37 5.125 37H35.875C37.2342 37 38.5378 36.5127 39.4989 35.6454C40.46 34.778 41 33.6016 41 32.375V30.0625C41 29.7558 40.865 29.4617 40.6247 29.2449C40.3844 29.0281 40.0586 28.9062 39.7188 28.9062Z" fill="#0252CF"/>
<path d="M17.9741 13.4356C16.8169 14.6649 15.9962 16.1225 15.5781 17.6906C16.0057 17.5051 16.4746 17.4102 16.9491 17.4131C17.8447 17.4429 18.7156 17.6863 19.4731 18.1184C21.9716 19.4134 22.9453 18.1763 22.9838 18.1184C23.0356 18.0578 23.0912 17.9999 23.1503 17.945C23.4606 17.6753 23.7079 17.3521 23.8773 16.9946C24.0468 16.6371 24.135 16.2526 24.1369 15.8638C24.138 15.4745 24.0511 15.0892 23.8814 14.7313C23.7118 14.3735 23.463 14.0506 23.1503 13.7825C21.8691 12.6494 19.3194 12.2563 17.9741 13.4356Z" fill="#0252CF"/>
<path d="M37.1562 11.5625C37.1474 10.6254 36.8834 9.70456 36.3875 8.88116L26.6756 16.3147C26.5607 17.5282 25.9754 18.6663 25.0228 19.5291C24.1388 20.5812 21.7044 21.9456 18.1937 20.1187C17.5275 19.7719 16.9766 19.6447 16.6819 19.7719C16.2847 19.9569 16.0669 20.7084 16.0284 20.9397C16.0014 21.1551 15.9077 21.3593 15.7582 21.529C15.6087 21.6987 15.4093 21.827 15.1828 21.8994C15.0478 21.9457 14.9045 21.9692 14.76 21.9688C14.4261 21.9685 14.1051 21.8526 13.8631 21.645C13.5002 21.2945 13.2199 20.8812 13.0393 20.43C12.8587 19.9788 12.7815 19.4992 12.8125 19.0203C13.0214 16.3329 14.2109 13.7835 16.195 11.7706C17.1657 10.9396 18.4447 10.4647 19.7825 10.4386L19.803 10.4178L24.3924 5.78125H10.25C8.55096 5.78125 6.9215 6.39034 5.7201 7.47454C4.51869 8.55873 3.84375 10.0292 3.84375 11.5625V26.5938H37.1562V11.5625Z" fill="#0252CF"/>
<path d="M24.9466 12.1291C25.4585 12.5704 25.8718 13.0964 26.1637 13.6785L37.285 5.16847C37.6336 4.9072 37.9168 4.58216 38.1159 4.21483C38.3149 3.84749 38.4254 3.44621 38.4399 3.0375C38.4545 2.62879 38.3727 2.22195 38.2001 1.84385C38.0276 1.46575 37.7681 1.12499 37.4387 0.844096C36.7582 0.296967 35.8774 -0.00367219 34.9659 3.38598e-05C34.5087 0.0152217 34.0594 0.111927 33.6437 0.284575C33.2281 0.457223 32.8545 0.7024 32.5444 1.00597L22.7812 10.8803C23.5884 11.1616 24.3247 11.5862 24.9466 12.1291Z" fill="#0252CF"/>
</g>
<defs>
<clipPath id="clip0_252_5550">
<rect width="41" height="37" fill="white"/>
</clipPath>
</defs>
</svg>
