<svg width="60" height="60" viewBox="0 0 60 60" fill="none" xmlns="http://www.w3.org/2000/svg">
<g clip-path="url(#clip0_252_4954)">
<g clip-path="url(#clip1_252_4954)">
<path d="M16.9063 17.0909L18.9063 17.4545C19.0881 18.1818 19.4518 19 19.8154 19.7272L18.6336 21.4545C18.3609 21.8181 18.4518 22.2727 18.7245 22.6363L21.5427 25.4545C21.8154 25.8181 22.3609 25.8181 22.7245 25.5454L24.4518 24.3636C25.179 24.7272 25.9063 25.0909 26.6336 25.2727L26.9972 27.2727C27.0881 27.7272 27.4518 28 27.9063 28H31.9063C32.3609 28 32.7245 27.7272 32.8154 27.2727L33.179 25.2727C33.9063 25.0909 34.7245 24.7272 35.3609 24.3636L37.0881 25.5454C37.4518 25.8181 37.9063 25.7272 38.27 25.4545L41.0881 22.6363C41.4518 22.3636 41.4518 21.8181 41.179 21.4545L39.9972 19.7272C40.3609 19 40.7245 18.2727 40.9063 17.5454L42.9063 17.1818C43.3609 17.0909 43.6336 16.7272 43.6336 16.2727V12.2727C43.6336 11.8181 43.3609 11.4545 42.9063 11.3636L40.9063 11C40.7245 10.2727 40.3609 9.4545 39.9972 8.72723L41.179 7.09087C41.4518 6.72723 41.3609 6.27268 41.0881 5.90905L38.27 3.09086C37.9972 2.81814 37.4518 2.72723 37.0881 2.99996L35.3609 4.18177C34.6336 3.81814 33.9063 3.4545 33.179 3.27268L32.8154 1.27268C32.7245 0.818137 32.3609 0.54541 31.9063 0.54541H27.9063C27.4518 0.54541 27.0881 0.909046 26.9972 1.27268L26.6336 3.27268C25.8154 3.4545 25.0881 3.81814 24.3609 4.18177L22.7245 2.99996C22.5427 2.72723 22.0881 2.72723 21.7245 2.99996L18.9063 5.81814C18.6336 6.09087 18.5427 6.63632 18.8154 6.99996L19.9972 8.72723C19.6336 9.4545 19.27 10.1818 19.0881 10.909L17.0881 11.2727C16.6336 11.3636 16.3609 11.7272 16.3609 12.1818V16.1818C16.179 16.6363 16.5427 17 16.9063 17.0909ZM29.9972 8.09086C33.4518 8.09086 36.179 10.909 36.179 14.2727C36.179 17.7272 33.3609 20.4545 29.9972 20.4545C26.5427 20.4545 23.8154 17.6363 23.8154 14.2727C23.8154 10.8181 26.5427 8.09086 29.9972 8.09086Z" fill="#0252CF"/>
<path d="M11.8161 34.7273C15.4524 34.7273 18.4524 31.7273 18.4524 28.091C18.4524 24.4546 15.4524 21.4546 11.8161 21.4546C8.17969 21.4546 5.17969 24.4546 5.17969 28.091C5.17969 31.7273 8.08878 34.7273 11.8161 34.7273Z" fill="#0252CF"/>
<path d="M23.0895 47.5455C23.0895 41.2728 17.9986 36.1819 11.8168 36.1819C5.54403 36.1819 0.453125 41.2728 0.453125 47.5455C0.453125 48.0001 0.816761 48.4546 1.36222 48.4546H22.1804C22.7259 48.4546 23.0895 48.091 23.0895 47.5455Z" fill="#0252CF"/>
<path d="M41.5449 28.091C41.5449 31.7273 44.5449 34.7273 48.1813 34.7273C51.8176 34.7273 54.8176 31.7273 54.8176 28.091C54.8176 24.4546 51.8176 21.4546 48.1813 21.4546C44.5449 21.4546 41.5449 24.3637 41.5449 28.091Z" fill="#0252CF"/>
<path d="M29.9984 47.3635C23.7257 47.3635 18.6348 52.4544 18.6348 58.6363C18.6348 59.1817 18.9984 59.5453 19.5439 59.5453H40.362C40.8166 59.5453 41.2711 59.1817 41.2711 58.6363C41.362 52.3635 36.2711 47.3635 29.9984 47.3635Z" fill="#0252CF"/>
<path d="M48.18 36.2727C41.9073 36.2727 36.8164 41.3636 36.8164 47.6363C36.8164 48.0909 37.18 48.5454 37.7255 48.5454H58.5437C59.0891 48.5454 59.4528 48.0909 59.4528 47.6363C59.5437 41.3636 54.4528 36.2727 48.18 36.2727Z" fill="#0252CF"/>
<path d="M29.9977 32.4546C26.3613 32.4546 23.3613 35.4546 23.3613 39.091C23.3613 42.7273 26.3613 45.7273 29.9977 45.7273C33.6341 45.7273 36.6341 42.7273 36.6341 39.091C36.6341 35.4546 33.6341 32.4546 29.9977 32.4546Z" fill="#0252CF"/>
<path d="M44.9989 6.36359C45.5444 6.36359 45.908 5.99996 45.908 5.4545C45.908 4.90905 45.5444 4.54541 44.9989 4.54541C44.5444 4.54541 44.0898 4.90905 44.0898 5.4545C44.0898 5.90905 44.5444 6.36359 44.9989 6.36359Z" fill="#0252CF"/>
<path d="M50.1808 7.36359C50.3626 7.36359 50.5444 7.27268 50.7262 7.18177C50.999 6.99996 51.0899 6.72723 51.0899 6.4545C51.0899 6.27268 50.999 6.09086 50.908 5.90905C50.7262 5.63632 50.4535 5.54541 50.1808 5.54541C49.999 5.54541 49.8171 5.63632 49.6353 5.72723C49.2717 5.99996 49.1808 6.54541 49.4535 6.99996C49.6353 7.18177 49.908 7.36359 50.1808 7.36359Z" fill="#0252CF"/>
<path d="M50.6357 12.7274C51.1377 12.7274 51.5447 12.3203 51.5447 11.8183C51.5447 11.3162 51.1377 10.9092 50.6357 10.9092C50.1336 10.9092 49.7266 11.3162 49.7266 11.8183C49.7266 12.3203 50.1336 12.7274 50.6357 12.7274Z" fill="#0252CF"/>
<path d="M50.6357 15.4544C51.1377 15.4544 51.5447 15.0474 51.5447 14.5453C51.5447 14.0432 51.1377 13.6362 50.6357 13.6362C50.1336 13.6362 49.7266 14.0432 49.7266 14.5453C49.7266 15.0474 50.1336 15.4544 50.6357 15.4544Z" fill="#0252CF"/>
<path d="M47.7255 6.36359C48.2276 6.36359 48.6346 5.95658 48.6346 5.4545C48.6346 4.95242 48.2276 4.54541 47.7255 4.54541C47.2234 4.54541 46.8164 4.95242 46.8164 5.4545C46.8164 5.95658 47.2234 6.36359 47.7255 6.36359Z" fill="#0252CF"/>
<path d="M50.6346 19.0908C50.271 19.0908 49.9073 19.3635 49.8164 19.7272C50.4528 19.8181 50.9982 19.9999 51.5437 20.2726C51.5437 20.1817 51.5437 20.0908 51.5437 19.9999C51.5437 19.5454 51.0891 19.0908 50.6346 19.0908Z" fill="#0252CF"/>
<path d="M50.6357 9.99982C51.1377 9.99982 51.5447 9.59281 51.5447 9.09073C51.5447 8.58865 51.1377 8.18164 50.6357 8.18164C50.1336 8.18164 49.7266 8.58865 49.7266 9.09073C49.7266 9.59281 50.1336 9.99982 50.6357 9.99982Z" fill="#0252CF"/>
<path d="M50.6357 18.1817C51.1377 18.1817 51.5447 17.7747 51.5447 17.2726C51.5447 16.7705 51.1377 16.3635 50.6357 16.3635C50.1336 16.3635 49.7266 16.7705 49.7266 17.2726C49.7266 17.7747 50.1336 18.1817 50.6357 18.1817Z" fill="#0252CF"/>
<path d="M9.36222 18.1817C9.86429 18.1817 10.2713 17.7747 10.2713 17.2726C10.2713 16.7705 9.86429 16.3635 9.36222 16.3635C8.86014 16.3635 8.45312 16.7705 8.45312 17.2726C8.45312 17.7747 8.86014 18.1817 9.36222 18.1817Z" fill="#0252CF"/>
<path d="M9.36222 15.4544C9.86429 15.4544 10.2713 15.0474 10.2713 14.5453C10.2713 14.0432 9.86429 13.6362 9.36222 13.6362C8.86014 13.6362 8.45312 14.0432 8.45312 14.5453C8.45312 15.0474 8.86014 15.4544 9.36222 15.4544Z" fill="#0252CF"/>
<path d="M10.2722 19.7272C10.1813 19.3635 9.81765 19.0908 9.45401 19.0908C8.90856 19.0908 8.54492 19.4545 8.54492 19.9999V20.2726C9.09038 19.9999 9.63583 19.909 10.2722 19.7272Z" fill="#0252CF"/>
<path d="M9.36222 12.7271C9.86429 12.7271 10.2713 12.3201 10.2713 11.818C10.2713 11.3159 9.86429 10.9089 9.36222 10.9089C8.86014 10.9089 8.45312 11.3159 8.45312 11.818C8.45312 12.3201 8.86014 12.7271 9.36222 12.7271Z" fill="#0252CF"/>
<path d="M12.2704 6.36359C12.7725 6.36359 13.1795 5.95658 13.1795 5.4545C13.1795 4.95242 12.7725 4.54541 12.2704 4.54541C11.7683 4.54541 11.3613 4.95242 11.3613 5.4545C11.3613 5.95658 11.7683 6.36359 12.2704 6.36359Z" fill="#0252CF"/>
<path d="M14.9989 6.36359C15.501 6.36359 15.908 5.95658 15.908 5.4545C15.908 4.95242 15.501 4.54541 14.9989 4.54541C14.4969 4.54541 14.0898 4.95242 14.0898 5.4545C14.0898 5.95658 14.4969 6.36359 14.9989 6.36359Z" fill="#0252CF"/>
<path d="M9.81554 7.36359C10.0883 7.36359 10.361 7.27268 10.5428 6.99996C10.6337 6.81814 10.7246 6.63632 10.7246 6.4545C10.7246 6.18177 10.6337 5.90905 10.361 5.72723C10.1792 5.63632 9.99735 5.54541 9.81554 5.54541C9.54281 5.54541 9.27008 5.63632 9.08826 5.90905C8.81554 6.36359 8.90644 6.90905 9.27008 7.18177C9.4519 7.27268 9.63372 7.36359 9.81554 7.36359Z" fill="#0252CF"/>
<path d="M9.36222 10.0001C9.86429 10.0001 10.2713 9.59305 10.2713 9.09098C10.2713 8.5889 9.86429 8.18188 9.36222 8.18188C8.86014 8.18188 8.45312 8.5889 8.45312 9.09098C8.45312 9.59305 8.86014 10.0001 9.36222 10.0001Z" fill="#0252CF"/>
</g>
</g>
<defs>
<clipPath id="clip0_252_4954">
<rect width="60" height="60" fill="white"/>
</clipPath>
<clipPath id="clip1_252_4954">
<rect width="60" height="60" fill="white"/>
</clipPath>
</defs>
</svg>
