<svg width="38" height="38" viewBox="0 0 38 38" fill="none" xmlns="http://www.w3.org/2000/svg">
<path d="M19.7605 34.6127H16.5737C16.2705 34.6127 15.9676 34.5083 15.7204 34.3186C14.8156 33.625 13.8523 33.4213 12.9179 33.3355V23.9056C13.7173 23.028 14.5742 22.3884 15.4044 21.7688C17.2787 20.3699 19.0489 19.0486 18.8692 15.5843C18.8962 15.0401 19.1807 14.7403 19.7227 14.685C20.0958 14.685 20.4313 14.9311 20.5389 15.2838C20.7567 15.9979 20.9099 16.6589 21.0069 17.3045C21.0526 17.6085 21.3361 17.8181 21.6401 17.7722C21.9442 17.7264 22.1535 17.4429 22.1078 17.1389C22.0025 16.4388 21.8376 15.7258 21.6037 14.9591C21.3507 14.1293 20.5949 13.5717 19.7227 13.5717C18.4747 13.6991 17.8196 14.3893 17.7575 15.6423C17.9064 18.5123 16.5777 19.5041 14.7385 20.8767C14.1629 21.3063 13.537 21.7735 12.9169 22.3375V21.2368C12.9169 20.9068 12.6443 20.7245 12.36 20.6801L7.29853 20.6823C6.99127 20.6825 6.74219 20.9316 6.74219 21.239V26.7695C6.74219 27.077 6.99141 27.3262 7.29883 27.3262C7.60624 27.3262 7.85547 27.077 7.85547 26.7695V21.7953L11.8038 21.7936V34.6101L7.85547 34.6124V29.1957C7.85547 28.8883 7.60624 28.639 7.29883 28.639C6.99141 28.639 6.74219 28.8883 6.74219 29.1957V35.1693C6.74219 35.4993 7.01487 35.6816 7.29912 35.726L12.3606 35.723C12.6679 35.7229 12.9169 35.4737 12.9169 35.1664V34.4545C13.7835 34.5437 14.4237 34.7273 15.0427 35.2018C15.4829 35.5398 16.0266 35.7259 16.5736 35.7259H19.7605C20.0679 35.7259 20.3171 35.4767 20.3171 35.1693C20.3171 34.8618 20.068 34.6127 19.7605 34.6127Z" fill="#FF631B"/>
<path d="M10.0859 25.9601V24.5407C10.0859 24.2333 9.83671 23.9841 9.5293 23.9841C9.22188 23.9841 8.97266 24.2333 8.97266 24.5407V25.9601C8.97266 26.2675 9.22188 26.5167 9.5293 26.5167C9.83671 26.5167 10.0859 26.2675 10.0859 25.9601Z" fill="#FF631B"/>
<path d="M30.0749 25.2673C31.1226 23.8561 30.0672 21.8315 28.3443 21.8315L21.8024 21.8312C22.0152 21.1316 22.1516 20.415 22.2091 19.6919C22.2334 19.3855 22.0048 19.1173 21.6983 19.0929C21.3914 19.0687 21.1236 19.2972 21.0993 19.6037C21.0289 20.4889 20.8355 21.3285 20.5081 22.1695C20.4794 22.2366 20.4635 22.3105 20.4635 22.3882V23.7471C20.4635 25.2896 19.2085 26.5446 17.666 26.5446C17.3586 26.5446 17.1094 26.7938 17.1094 27.1012C17.1094 27.4086 17.3586 27.6578 17.666 27.6578C19.8224 27.6578 21.5767 25.9035 21.5767 23.7472V22.9445H23.1413C22.5849 23.9479 23.02 25.3716 24.0383 25.8997C23.4734 26.754 23.4734 27.6083 24.0383 28.4627C22.5132 29.2536 22.5132 31.4995 24.0383 32.2904C23.5309 33.0493 23.4793 33.8234 23.8832 34.6128H22.1871C21.8797 34.6128 21.6305 34.862 21.6305 35.1694C21.6305 35.4769 21.8796 35.7261 22.1871 35.7261L27.6022 35.7262C29.325 35.7262 30.3805 33.7015 29.3328 32.2904C30.4492 31.7114 30.8344 30.1179 30.0749 29.095C31.6001 28.304 31.6001 26.0582 30.0749 25.2673ZM23.9857 23.9858C23.9857 23.4117 24.4528 22.9447 25.0268 22.9447H28.3444C28.9184 22.9447 29.3855 23.4117 29.3855 23.9858C29.3855 24.5599 28.9184 25.0269 28.3444 25.0269H25.0268C24.4528 25.0269 23.9857 24.5598 23.9857 23.9858ZM27.6023 34.6128H25.7804C25.7765 34.6127 25.7727 34.6127 25.7688 34.6127H25.7524C25.186 34.6037 24.7279 34.1403 24.7279 33.5717C24.7279 32.9977 25.195 32.5307 25.769 32.5307H27.6023C28.1763 32.5307 28.6433 32.9977 28.6433 33.5717C28.6433 34.1458 28.1763 34.6128 27.6023 34.6128ZM28.3443 31.4175H25.0267C24.4527 31.4175 23.9857 30.9505 23.9857 30.3764C23.9857 29.8023 24.4527 29.3353 25.0267 29.3353H28.3443C28.9183 29.3353 29.3854 29.8023 29.3854 30.3764C29.3854 30.9505 28.9184 31.4175 28.3443 31.4175ZM29.0865 28.2221H25.7689C25.1949 28.2221 24.7279 27.7551 24.7279 27.1811C24.7279 26.6071 25.1949 26.1401 25.7689 26.1401H29.0865C29.6605 26.1401 30.1276 26.6071 30.1276 27.1811C30.1276 27.7551 29.6605 28.2221 29.0865 28.2221Z" fill="#FF631B"/>
<path d="M15.181 6.42824L16.3069 7.52578L16.0411 9.07554C15.923 10.0706 16.6559 10.5994 17.6025 10.21L18.9942 9.47825L20.3859 10.21C21.0881 10.579 22.1049 9.99415 21.9474 9.07554L21.6816 7.52571L22.8075 6.42824C23.493 5.71959 23.2611 4.75482 22.2111 4.59273L20.6551 4.36659L19.9592 2.95658C19.5595 2.12013 18.5134 1.97541 18.0292 2.95658L17.3333 4.36659L15.7773 4.59273C14.7634 4.81049 14.5037 5.68256 15.181 6.42824ZM17.5127 5.46554C17.8633 5.41463 18.1662 5.19457 18.323 4.87684L18.9943 3.51678L19.6655 4.87684C19.8223 5.19457 20.1252 5.41463 20.4758 5.46554L21.9767 5.68367L20.8906 6.74233C20.637 6.98963 20.5213 7.34573 20.5811 7.69485L20.8375 9.18969L19.495 8.48395C19.1612 8.31911 18.8274 8.31911 18.4936 8.48395L17.1512 9.18969L17.4076 7.69478C17.4674 7.34558 17.3517 6.98955 17.0981 6.74233L16.012 5.68367L17.5127 5.46554Z" fill="#FF631B"/>
<path d="M6.98807 9.39677L8.11397 10.4942L7.8482 12.044C7.69063 12.9625 8.70735 13.5476 9.40961 13.1785L10.8013 12.4468L12.193 13.1785C13.0747 13.5718 13.8354 13.0207 13.7544 12.0441L13.4887 10.4944L14.6146 9.39684C15.2641 8.69763 15.0415 7.79773 14.0182 7.56134L12.4622 7.3352L11.7664 5.92519C11.2194 4.98677 10.3566 5.07026 9.83637 5.92519L9.14049 7.3352L7.5845 7.56134C6.553 7.77917 6.30252 8.66045 6.98807 9.39677ZM9.31995 8.43401C9.67049 8.38302 9.9733 8.16296 10.1301 7.84538L10.8014 6.48532L11.4726 7.84538C11.6293 8.16303 11.9322 8.38309 12.2828 8.43408L13.7838 8.65221L12.6978 9.71079C12.444 9.95801 12.3283 10.3142 12.3882 10.6633L12.6446 12.1581L11.3022 11.4523C10.9684 11.2874 10.6345 11.2874 10.3006 11.4523L8.95821 12.1581L9.21456 10.6633C9.27446 10.3142 9.15882 9.95809 8.90507 9.71079L7.81903 8.65213L9.31995 8.43401Z" fill="#FF631B"/>
<path d="M7.08628 18.7232L6.82051 17.1735L7.9464 16.0759C8.6405 15.4233 8.31601 14.4029 7.35006 14.2404L5.79399 14.0143L5.09811 12.6043C4.79983 11.8981 3.6524 11.6231 3.16813 12.6043L2.47225 14.0143L0.916255 14.2404C-0.0984634 14.4586 -0.228346 15.4049 0.319908 16.076L1.44581 17.1736L1.18003 18.7233C1.07048 19.7466 1.79411 20.3031 2.74144 19.8578L4.13319 19.126L5.52494 19.8578C6.22713 20.2268 7.24385 19.6417 7.08628 18.7232ZM6.02948 16.3899C5.7758 16.6371 5.6601 16.9932 5.71992 17.3424L5.97627 18.8372L4.6338 18.1314C4.3203 17.9666 3.94594 17.9666 3.63229 18.1314L2.2899 18.8372L2.54625 17.3423C2.60614 16.9931 2.49044 16.637 2.23676 16.3899L1.15071 15.3312L2.65149 15.1132C3.0021 15.0623 3.30499 14.8422 3.46181 14.5245L4.13304 13.1644L4.80428 14.5244C4.9611 14.8421 5.26399 15.0622 5.61453 15.1131L7.11538 15.3312L6.02948 16.3899Z" fill="#FF631B"/>
<path d="M37.0705 14.2405L35.5146 14.0144L34.8186 12.6044C34.328 11.6106 33.3728 11.6231 32.8886 12.6044L32.1927 14.0144L30.6368 14.2405C29.6206 14.4308 29.3555 15.3214 30.0403 16.076L31.1662 17.1736L30.9004 18.7234C30.7429 19.6419 31.7596 20.2268 32.4618 19.8578L33.8535 19.1261L35.2452 19.8578C36.1926 20.2847 36.9348 19.7281 36.8066 18.7234L36.5408 17.1736L37.6668 16.076C38.2986 15.4698 37.9924 14.3844 37.0705 14.2405ZM35.7499 16.39C35.4962 16.6373 35.3806 16.9934 35.4405 17.3425L35.6969 18.8373L34.3544 18.1315C34.0206 17.9667 33.6867 17.9667 33.3529 18.1315L32.0105 18.8373L32.2668 17.3425C32.3268 16.9932 32.211 16.6371 31.9573 16.39L30.8713 15.3313L32.3722 15.1132C32.7228 15.0623 33.0257 14.8422 33.1825 14.5246L33.8538 13.1645L34.525 14.5245C34.6818 14.8422 34.9847 15.0623 35.3353 15.1132L36.8362 15.3313L35.7499 16.39Z" fill="#FF631B"/>
<path d="M23.3951 9.39676L24.521 10.4942L24.2552 12.044C24.1328 13.0485 24.8656 13.5716 25.8166 13.1784L27.2082 12.4467L28.6 13.1784C29.3023 13.5474 30.319 12.9625 30.1614 12.044L29.8956 10.4942L31.0215 9.39676C31.6934 8.58622 31.4893 7.76981 30.4251 7.56126L28.8691 7.33511L28.1732 5.92518C27.7785 5.12525 26.6379 5.1254 26.2432 5.92518L25.5473 7.33519L23.9913 7.56133C22.9453 7.76061 22.6856 8.59549 23.3951 9.39676ZM25.727 8.43399C26.0775 8.38301 26.3804 8.16295 26.5372 7.84529L27.2085 6.48531L27.8797 7.84529C28.0365 8.16295 28.3393 8.38301 28.69 8.43399L30.1909 8.65212L29.1048 9.71078C28.8512 9.95808 28.7355 10.3142 28.7953 10.6633L29.0517 12.1581L27.7094 11.4524C27.3755 11.2876 27.0416 11.2876 26.7077 11.4524L25.3653 12.1581L25.6217 10.6634C25.6816 10.3143 25.5659 9.95815 25.3123 9.71085L24.2262 8.6522L25.727 8.43399Z" fill="#FF631B"/>
</svg>
