<svg width="24" height="24" viewBox="0 0 24 24" fill="none" xmlns="http://www.w3.org/2000/svg">
<g clip-path="url(#clip0_252_4654)">
<path d="M23.3246 15.5389H23.198V14.7554C23.198 14.3957 22.9053 14.103 22.5456 14.103H21.8834L19.026 11.2456C19.0139 11.2335 19.0008 11.2228 18.9875 11.2128V7.30051H21.0497C21.1849 7.30051 21.3082 7.22356 21.3676 7.10213C21.4269 6.98074 21.412 6.83615 21.3291 6.72948L19.9138 4.90934C19.8467 4.82315 19.7436 4.77272 19.6344 4.77272H18.8865L7.37887 0.204986C7.36769 0.200504 7.35622 0.196589 7.34448 0.193239C7.34075 0.192154 7.33697 0.191446 7.3332 0.190503C7.32617 0.188757 7.31914 0.186917 7.31197 0.185596C7.30518 0.184323 7.29838 0.183521 7.29159 0.182671C7.28739 0.182153 7.28324 0.181445 7.27899 0.181067C7.27069 0.180313 7.26248 0.18003 7.25423 0.179888C7.25187 0.179841 7.24956 0.179558 7.24715 0.179558H7.24191C7.24073 0.179558 7.23955 0.179558 7.23842 0.179558H6.36749C6.18401 0.179558 6.03097 0.319815 6.01498 0.502579L5.6419 4.77276H3.25432C3.24267 4.31571 2.86803 3.94726 2.4082 3.94726H0.847205C0.380058 3.94721 0 4.32727 0 4.79442V7.32943C0 7.79658 0.380058 8.17663 0.847205 8.17663H2.4082C2.87535 8.17663 3.2554 7.79658 3.2554 7.32943V7.30056H5.50056L5.0805 21.2768H4.75766C4.05935 21.2768 3.49124 21.8449 3.49124 22.5432V23.4667C3.49124 23.6621 3.64966 23.8205 3.84507 23.8205H4.48031C4.67572 23.8205 4.83414 23.6621 4.83414 23.4667C4.83414 23.2713 4.67572 23.1128 4.48031 23.1128H4.1989V22.5432C4.1989 22.2351 4.44955 21.9845 4.75766 21.9845H5.80377H9.23656C9.54467 21.9845 9.79532 22.2351 9.79532 22.5432V23.1128H5.89557C5.70017 23.1128 5.54175 23.2713 5.54175 23.4667C5.54175 23.6621 5.70017 23.8205 5.89557 23.8205H10.1492C10.3446 23.8205 10.503 23.6621 10.503 23.4667V22.5432C10.503 21.8449 9.93487 21.2768 9.23656 21.2768H8.53574L8.11568 7.30056H10.0724V9.06531C10.0724 9.57095 10.4838 9.98234 10.9894 9.98234H13.7041C14.2098 9.98234 14.6212 9.57095 14.6212 9.06531V7.30056H18.2797V11.1832C18.2494 11.1993 18.2208 11.2201 18.1952 11.2456L15.3379 14.103H14.6272C14.2675 14.103 13.9748 14.3957 13.9748 14.7554V15.5389H13.6454C13.2729 15.5389 12.97 15.8419 12.97 16.2143V16.8799C12.97 17.2523 13.2729 17.5553 13.6454 17.5553H14.5948C14.7902 17.5553 14.9486 17.3969 14.9486 17.2015C14.9486 17.0061 14.7902 16.8476 14.5948 16.8476H13.6776V16.2466H23.2922V16.8476H16.0102C15.8148 16.8476 15.6564 17.0061 15.6564 17.2015C15.6564 17.3969 15.8148 17.5553 16.0102 17.5553H23.3246C23.697 17.5553 24 17.2523 24 16.8799V16.2143C24 15.8419 23.697 15.5389 23.3246 15.5389ZM6.69173 0.887214H6.9229L7.26239 4.77276H6.35225L6.69173 0.887214ZM2.54775 7.32943C2.54775 7.40637 2.48515 7.46898 2.4082 7.46898H0.847205C0.77026 7.46898 0.707656 7.40637 0.707656 7.32943V4.79442C0.707656 4.71747 0.77026 4.65487 0.847205 4.65487H2.4082C2.48515 4.65487 2.54775 4.71747 2.54775 4.79442V5.12659V6.94673V7.32943ZM3.2554 5.48042H10.4263C10.6217 5.48042 10.7801 5.322 10.7801 5.12659C10.7801 4.93118 10.6217 4.77276 10.4263 4.77276H7.97268L7.64948 1.07375L16.9684 4.77276H11.8416C11.6462 4.77276 11.4878 4.93118 11.4878 5.12659C11.4878 5.322 11.6462 5.48042 11.8416 5.48042H18.8167C18.8174 5.48042 18.818 5.48051 18.8187 5.48051C18.8191 5.48051 18.8195 5.48042 18.8199 5.48042H19.4613L20.3263 6.5929H14.2674H10.4263H3.25536L3.2554 5.48042ZM6.12382 10.1207L7.19162 10.8937L6.05333 12.466L6.12382 10.1207ZM6.18519 17.4903L7.65872 15.6493L7.74807 18.6226L6.18519 17.4903ZM6.29479 13.3392L7.53771 11.6224L7.6181 14.2979L6.29479 13.3392ZM6.0071 14.0047L7.31202 14.95L5.92666 16.6807L6.0071 14.0047ZM7.31202 19.1805L5.79457 21.0763L5.88265 18.145L7.31202 19.1805ZM6.39541 9.44367L7.431 8.0703L7.49624 10.2407L6.39541 9.44367ZM7.12505 7.30056L6.17052 8.56651L6.20855 7.30056H7.12505ZM6.54053 21.2768L7.78129 19.7267L7.82785 21.2768H6.54053ZM13.9136 9.06531C13.9136 9.18075 13.8197 9.27468 13.7043 9.27468H10.9896C10.8741 9.27468 10.7802 9.18075 10.7802 9.06531V7.30056H13.9136V9.06531ZM20.8826 14.103H18.9875V12.2079L20.8826 14.103ZM18.2798 12.162V14.1031H16.3388L18.2798 12.162ZM14.6826 14.8107H22.4903V15.5389H14.6826V14.8107Z" fill="#0252CF"/>
</g>
<defs>
<clipPath id="clip0_252_4654">
<rect width="24" height="24" fill="white"/>
</clipPath>
</defs>
</svg>
