<svg width="48" height="48" viewBox="0 0 48 48" fill="none" xmlns="http://www.w3.org/2000/svg">
<path d="M19.7598 36.74L14.7498 43.65C14.5686 43.9082 14.3274 44.1186 14.047 44.2632C13.7667 44.4078 13.4554 44.4821 13.1399 44.48C13.0897 44.4816 13.0394 44.4783 12.9898 44.47C12.6488 44.4476 12.3194 44.3372 12.0337 44.1497C11.7481 43.9622 11.5158 43.7039 11.3596 43.4L9.24978 39.33L4.71978 38.58C4.383 38.5246 4.06595 38.3841 3.79869 38.1718C3.53143 37.9595 3.3228 37.6825 3.19259 37.367C3.06239 37.0515 3.01491 36.708 3.05465 36.369C3.0944 36.03 3.22006 35.7068 3.41973 35.43L9.28978 27.35V28.72C9.29084 30.3083 9.92226 31.8313 11.0454 32.9544C12.1685 34.0775 13.6915 34.7089 15.2798 34.71H17.3198C17.45 34.7087 17.5791 34.7337 17.6994 34.7835C17.8197 34.8334 17.9286 34.907 18.0198 35L19.7598 36.74Z" fill="#0252CF"/>
<path d="M44.6685 37.51C44.5407 37.8264 44.3321 38.1036 44.0637 38.3142C43.7953 38.5248 43.4763 38.6612 43.1387 38.71L38.6084 39.43L36.4585 43.49C36.3019 43.7928 36.0694 44.0496 35.7837 44.2354C35.4979 44.4212 35.1689 44.5296 34.8287 44.55C34.7786 44.55 34.7386 44.56 34.6885 44.56C34.3711 44.5593 34.0585 44.4826 33.7767 44.3365C33.4949 44.1904 33.2521 43.979 33.0686 43.72L28.1484 36.83C28.1809 36.8062 28.2111 36.7795 28.2385 36.75L29.9785 35C30.0697 34.9071 30.1787 34.8335 30.2989 34.7836C30.4192 34.7338 30.5483 34.7088 30.6785 34.71H32.7185C34.3068 34.709 35.8298 34.0776 36.9529 32.9544C38.076 31.8313 38.7074 30.3084 38.7085 28.72V27.54L44.4585 35.58C44.6552 35.8571 44.7778 36.1799 44.8146 36.5177C44.8513 36.8555 44.801 37.1971 44.6685 37.51Z" fill="#0252CF"/>
<path d="M23.9985 11.2861C22.2751 11.2862 20.5904 11.7974 19.1575 12.7549C17.7246 13.7125 16.6078 15.0734 15.9483 16.6657C15.2889 18.2579 15.1164 20.01 15.4527 21.7003C15.7889 23.3906 16.6189 24.9432 17.8376 26.1618C19.0562 27.3804 20.6089 28.2103 22.2992 28.5465C23.9895 28.8827 25.7416 28.7101 27.3338 28.0505C28.926 27.391 30.2869 26.2741 31.2444 24.8411C32.2019 23.4081 32.7129 21.7234 32.7129 20C32.7102 17.6897 31.7912 15.4748 30.1575 13.8412C28.5238 12.2076 26.3089 11.2887 23.9985 11.2861ZM28.7793 18.6807L24.0684 23.5693C23.9855 23.6727 23.883 23.7587 23.7668 23.8222C23.6506 23.8857 23.5229 23.9256 23.3911 23.9395C23.3565 23.9424 23.3218 23.9443 23.2876 23.9443C23.0556 23.9444 22.8308 23.8636 22.6519 23.7158L19.7915 21.3604C19.5869 21.1917 19.4577 20.9488 19.4322 20.6848C19.4068 20.4209 19.4872 20.1577 19.6558 19.9531C19.8244 19.7485 20.0674 19.6192 20.3313 19.5938C20.5952 19.5683 20.8584 19.6487 21.063 19.8174L23.1402 21.5274L27.2178 17.4307C27.2997 17.3277 27.4012 17.2419 27.5163 17.1782C27.6315 17.1145 27.758 17.0742 27.8888 17.0595C28.0196 17.0448 28.152 17.0561 28.2784 17.0926C28.4048 17.1292 28.5227 17.1904 28.6254 17.2726C28.7282 17.3548 28.8136 17.4565 28.877 17.5719C28.9404 17.6872 28.9803 17.8139 28.9946 17.9447C29.0089 18.0755 28.9973 18.2078 28.9603 18.3341C28.9234 18.4604 28.8618 18.5782 28.7793 18.6807Z" fill="#0252CF"/>
<path d="M39.6851 16.8262L37.9404 15.0811C37.4753 14.6133 37.2134 13.981 37.2114 13.3213V11.2773C37.2102 10.0872 36.7369 8.94614 35.8953 8.10452C35.0538 7.26291 33.9128 6.78948 32.7227 6.78809H30.6787C30.3518 6.78904 30.0279 6.72514 29.7259 6.60009C29.4238 6.47504 29.1496 6.29132 28.919 6.05957L27.1743 4.31445C26.3316 3.47396 25.19 3.00195 23.9998 3.00195C22.8095 3.00195 21.6679 3.47396 20.8252 4.31445L19.0815 6.05957C18.8508 6.2913 18.5765 6.47499 18.2743 6.60004C17.9722 6.72509 17.6483 6.789 17.3213 6.78809H15.2773C14.0871 6.78948 12.9461 7.26291 12.1046 8.10452C11.2631 8.94614 10.7898 10.0872 10.7885 11.2773V13.3213C10.7866 13.981 10.5246 14.6133 10.0595 15.0811L8.31494 16.8262C7.89806 17.2429 7.56737 17.7377 7.34175 18.2823C7.11613 18.8269 7 19.4105 7 20C7 20.5895 7.11613 21.1732 7.34175 21.7177C7.56737 22.2623 7.89806 22.7571 8.31494 23.1738L10.0596 24.919C10.5247 25.3868 10.7866 26.0191 10.7886 26.6788V28.7228C10.7898 29.9129 11.2631 31.054 12.1047 31.8956C12.9462 32.7372 14.0872 33.2106 15.2773 33.212H17.3213C17.6483 33.2111 17.9721 33.275 18.2742 33.4C18.5763 33.5251 18.8505 33.7088 19.0811 33.9405L20.8257 35.6857C21.6684 36.5262 22.8101 36.9982 24.0003 36.9982C25.1905 36.9982 26.3321 36.5262 27.1749 35.6857L28.9185 33.9405C29.1492 33.7088 29.4236 33.5251 29.7257 33.4001C30.0278 33.275 30.3518 33.2111 30.6788 33.212H32.7227C33.9129 33.2106 35.0539 32.7372 35.8954 31.8956C36.7369 31.054 37.2102 29.9129 37.2115 28.7228V26.6788C37.2134 26.0191 37.4754 25.3868 37.9405 24.919L39.6851 23.1739C40.102 22.7571 40.4327 22.2624 40.6583 21.7178C40.8839 21.1732 41 20.5895 41 20.0001C41 19.4106 40.8839 18.8269 40.6583 18.2823C40.4327 17.7378 40.1019 17.2429 39.6851 16.8262ZM24 30.7139C21.881 30.7138 19.8096 30.0853 18.0478 28.908C16.286 27.7307 14.9129 26.0574 14.102 24.0997C13.2912 22.142 13.0791 19.9878 13.4925 17.9095C13.906 15.8313 14.9264 13.9223 16.4248 12.424C17.9232 10.9257 19.8322 9.90532 21.9105 9.49196C23.9888 9.07861 26.1429 9.2908 28.1006 10.1017C30.0583 10.9126 31.7316 12.2859 32.9088 14.0477C34.086 15.8096 34.7144 17.881 34.7144 20C34.711 22.8405 33.581 25.5638 31.5724 27.5723C29.5638 29.5808 26.8405 30.7106 24 30.7139Z" fill="#0252CF"/>
</svg>
