<svg width="38" height="38" viewBox="0 0 38 38" fill="none" xmlns="http://www.w3.org/2000/svg">
<path fill-rule="evenodd" clip-rule="evenodd" d="M14.5791 10.3899C16.6026 8.60546 19.2594 7.52087 22.168 7.52087C28.5029 7.52087 33.6471 12.6651 33.6471 19C33.6471 25.335 28.5029 30.4792 22.168 30.4792C19.2594 30.4792 16.6026 29.3946 14.5791 27.6102C14.0882 27.1764 13.3361 27.2223 12.9023 27.7147C12.4685 28.2055 12.516 28.956 13.0068 29.3899C15.4499 31.5464 18.6577 32.8542 22.168 32.8542C29.8139 32.8542 36.0221 26.646 36.0221 19C36.0221 11.3541 29.8139 5.14587 22.168 5.14587C18.6577 5.14587 15.4499 6.45371 13.0068 8.61021C12.516 9.04404 12.4685 9.79454 12.9023 10.2854C13.3361 10.7778 14.0882 10.8237 14.5791 10.3899Z" fill="#FF631B"/>
<path fill-rule="evenodd" clip-rule="evenodd" d="M20.3477 12.0333V18.3667C20.3477 18.6817 20.4727 18.9842 20.696 19.2058L25.7627 24.2725C26.225 24.7364 26.9787 24.7364 27.441 24.2725C27.9049 23.8102 27.9049 23.0565 27.441 22.5942L22.7227 17.8742V12.0333C22.7227 11.3778 22.1907 10.8458 21.5352 10.8458C20.8797 10.8458 20.3477 11.3778 20.3477 12.0333Z" fill="#FF631B"/>
<path fill-rule="evenodd" clip-rule="evenodd" d="M3.16797 14.6459H12.668C13.3235 14.6459 13.8555 14.1139 13.8555 13.4584C13.8555 12.8029 13.3235 12.2709 12.668 12.2709H3.16797C2.51247 12.2709 1.98047 12.8029 1.98047 13.4584C1.98047 14.1139 2.51247 14.6459 3.16797 14.6459Z" fill="#FF631B"/>
<path fill-rule="evenodd" clip-rule="evenodd" d="M4.75 20.1875H14.25C14.9055 20.1875 15.4375 19.6555 15.4375 19C15.4375 18.3445 14.9055 17.8125 14.25 17.8125H4.75C4.0945 17.8125 3.5625 18.3445 3.5625 19C3.5625 19.6555 4.0945 20.1875 4.75 20.1875Z" fill="#FF631B"/>
<path fill-rule="evenodd" clip-rule="evenodd" d="M6.33594 25.7292H15.8359C16.4914 25.7292 17.0234 25.1972 17.0234 24.5417C17.0234 23.8862 16.4914 23.3542 15.8359 23.3542H6.33594C5.68044 23.3542 5.14844 23.8862 5.14844 24.5417C5.14844 25.1972 5.68044 25.7292 6.33594 25.7292Z" fill="#FF631B"/>
</svg>
