<svg xmlns="http://www.w3.org/2000/svg" width="60" height="60" viewBox="0 0 60 60" fill="white">
<g clip-path="url(#clip0_252_5020)">
<path d="M51.8356 15.8823L36.7115 31.0064L24.2332 33.5021L26.7288 21.0239L31.8702 15.8823H13.6176V47.647H4.79412C1.87024 47.647 -0.5 50.0173 -0.5 52.9412C-0.5 55.865 1.87024 58.2353 4.79412 58.2353H15.3824H59.5V15.8823H51.8356ZM52.4412 51.1764H17.1471V37.0588H52.4412V51.1764Z" fill="blue"/>
<path d="M48.9111 40.5881H43.617V44.1175H40.0875V40.5881H36.5581V44.1175H33.0287V40.5881H29.4993V44.1175H25.9699V40.5881H20.6758V47.647H48.9111V40.5881Z" fill="blue"/>
<path d="M29.9802 22.7638L28.7324 29.003L34.9716 27.7552L35.0916 27.6352L30.1003 22.6438L29.9802 22.7638Z" fill="white"/>
<path d="M44.4336 8.30176L49.4242 13.2923L37.5844 25.1321L32.5938 20.1415L44.4336 8.30176Z" fill="blue"/>
<path d="M54.9375 7.78971C56.3158 6.41136 56.3158 4.17665 54.9375 2.79841C53.5591 1.42006 51.3244 1.42006 49.9462 2.79841L46.9336 5.811L51.9249 10.8023L54.9375 7.78971Z" fill="blue"/>
<path d="M6.55882 44.1176H10.0882V12.3529V8.82349H6.55882C2.66035 8.82349 -0.5 11.9838 -0.5 15.8823V45.8871C0.975765 44.7768 2.80929 44.1176 4.79412 44.1176H6.55882Z" fill="blue"/>
</g>
<defs>
<clipPath id="clip0_252_5020">
<rect width="60" height="60" fill="white"/>
</clipPath>
</defs>
</svg>